<?xml version="1.0" encoding="UTF-8" standalone="no"?>
<svg
   xmlns:dc="http://purl.org/dc/elements/1.1/"
   xmlns:cc="http://creativecommons.org/ns#"
   xmlns:rdf="http://www.w3.org/1999/02/22-rdf-syntax-ns#"
   xmlns:svg="http://www.w3.org/2000/svg"
   xmlns="http://www.w3.org/2000/svg"
   xmlns:sodipodi="http://sodipodi.sourceforge.net/DTD/sodipodi-0.dtd"
   xmlns:inkscape="http://www.inkscape.org/namespaces/inkscape"
   width="45.73mm"
   height="9.7079mm"
   version="1.1"
   viewBox="0 0 45.73 9.7079"
   id="svg67"
   sodipodi:docname="nullpointer_logo.svg"
   inkscape:version="1.0.2 (e86c870879, 2021-01-15)">
  <metadata
     id="metadata71">
    <rdf:RDF>
      <cc:Work
         rdf:about="">
        <dc:format>image/svg+xml</dc:format>
        <dc:type
           rdf:resource="http://purl.org/dc/dcmitype/StillImage" />
      </cc:Work>
    </rdf:RDF>
  </metadata>
  <sodipodi:namedview
     pagecolor="#ffffff"
     bordercolor="#666666"
     borderopacity="1"
     objecttolerance="10"
     gridtolerance="10"
     guidetolerance="10"
     inkscape:pageopacity="0"
     inkscape:pageshadow="2"
     inkscape:window-width="1600"
     inkscape:window-height="838"
     id="namedview69"
     showgrid="false"
     showguides="false"
     inkscape:zoom="2.7226659"
     inkscape:cx="83.926316"
     inkscape:cy="44.466563"
     inkscape:window-x="0"
     inkscape:window-y="0"
     inkscape:window-maximized="1"
     inkscape:current-layer="svg67" />
  <defs
     id="defs5">
    <marker
       id="marker3936"
       overflow="visible"
       orient="auto">
      <path
         transform="matrix(-.3 0 0 -.3 .69 0)"
         d="m8.7186 4.0337-10.926-4.0177 10.926-4.0177c-1.7455 2.3721-1.7354 5.6175-6e-7 8.0354z"
         fill="#fff"
         fill-rule="evenodd"
         stroke="#fff"
         stroke-linejoin="round"
         stroke-width=".625"
         id="path2" />
    </marker>
  </defs>
  <path
     d="m 0.482406,4.968911 0.65405,-1.022349 -1.0033,-0.43815 0.12065,-0.37465 1.04775,0.31115 0.0635,-1.16205 h 0.4064 l 0.0635,1.16205 1.04775,-0.31115 0.12065,0.37465 -1.0033,0.43815 0.65405,1.022349 -0.33655,0.23495 -0.7493,-0.952499 -0.7493,0.952499 z"
     style="font-size:6.35px;line-height:1.25;font-family:'Source Code Pro Semibold';font-variant-ligatures:normal;font-variant-caps:normal;font-variant-numeric:normal;font-variant-east-asian:normal;letter-spacing:0px;word-spacing:0px;fill:#ffffff;stroke:#ffffff;stroke-width:0.26458"
     id="path902" />
  <path
     id="rect11"
     style="fill:#ffffff;paint-order:markers fill stroke"
     d="m 4.830802,0.001999 h 13.771399 c 0.633111,0 1.1428,0.509689 1.1428,1.1428 V 6.3425 c 0,0.633111 -0.509689,1.1428 -1.1428,1.1428 H 4.830802 c -0.633111,0 -1.1428,-0.509689 -1.1428,-1.1428 V 1.144799 c 0,-0.633111 0.509689,-1.1428 1.1428,-1.1428 z" />
  <path
     d="m 4.671797,2.8284958 h 0.60325 l 0.05715,0.4699 h 0.0254 q 0.22225,-0.22225 0.48895,-0.381 0.27305,-0.1651 0.635,-0.1651 0.53975,0 0.79375,0.3302 0.254,0.32385 0.254,0.9334502 v 1.9304 h -0.7366 v -1.83515 q 0,-0.381 -0.13335,-0.5524502 -0.127,-0.1778 -0.45085,-0.1778 -0.2286,0 -0.4064,0.10795 -0.1778,0.10795 -0.3937,0.3302002 v 2.12725 h -0.7366 z"
     style="font-size:6.35px;line-height:1.25;font-family:'Source Code Pro Semibold';font-variant-ligatures:normal;font-variant-caps:normal;font-variant-numeric:normal;font-variant-east-asian:normal;letter-spacing:0px;word-spacing:0px;fill:#001529;stroke:#001529;stroke-width:0.26458"
     id="path906" />
  <path
     d="m 11.292095,5.946346 h -0.5969 l -0.05715,-0.4953 h -0.0254 q -0.22225,0.26035 -0.48895,0.4191 -0.2667,0.1524 -0.61595,0.1524 -0.5461,0 -0.79375,-0.32385 -0.24765,-0.3302 -0.24765,-0.9398 V 2.8284958 h 0.73025 V 4.663646 q 0,0.381 0.127,0.5588 0.13335,0.17145 0.4572,0.17145 0.22225,0 0.3937,-0.1016 0.1778,-0.1016 0.38735,-0.36195 V 2.8284958 h 0.73025 z"
     style="font-size:6.35px;line-height:1.25;font-family:'Source Code Pro Semibold';font-variant-ligatures:normal;font-variant-caps:normal;font-variant-numeric:normal;font-variant-east-asian:normal;letter-spacing:0px;word-spacing:0px;fill:#001529;stroke:#001529;stroke-width:0.26458"
     id="path909" />
  <path
     d="m 12.168817,1.4632458 h 1.7145 V 4.847796 q 0,0.3175 0.15875,0.45085 0.15875,0.127 0.40005,0.127 0.2286,0 0.5334,-0.12065 l 0.17145,0.53975 q -0.22225,0.0762 -0.4191,0.127 -0.1905,0.0508 -0.46355,0.0508 -0.55245,0 -0.83185,-0.3175 -0.2794,-0.3175 -0.2794,-0.89535 V 2.0410958 h -0.98425 z"
     style="font-size:6.35px;line-height:1.25;font-family:'Source Code Pro Semibold';font-variant-ligatures:normal;font-variant-caps:normal;font-variant-numeric:normal;font-variant-east-asian:normal;letter-spacing:0px;word-spacing:0px;fill:#001529;stroke:#001529;stroke-width:0.26458"
     id="path912" />
  <path
     d="m 15.947492,1.4632458 h 1.7145 V 4.847796 q 0,0.3175 0.15875,0.45085 0.15875,0.127 0.40005,0.127 0.2286,0 0.5334,-0.12065 l 0.17145,0.53975 q -0.22225,0.0762 -0.4191,0.127 -0.1905,0.0508 -0.46355,0.0508 -0.55245,0 -0.83185,-0.3175 -0.2794,-0.3175 -0.2794,-0.89535 V 2.0410958 h -0.98425 z"
     style="font-size:6.35px;line-height:1.25;font-family:'Source Code Pro Semibold';font-variant-ligatures:normal;font-variant-caps:normal;font-variant-numeric:normal;font-variant-east-asian:normal;letter-spacing:0px;word-spacing:0px;fill:#001529;stroke:#001529;stroke-width:0.26458"
     id="path915" />
  <path
     d="m 21.010011,5.705346 v 0.9779 h -0.7366 V 2.3334958 h 0.60325 l 0.05715,0.3556 h 0.01905 q 0.2032,-0.18415 0.46355,-0.3048 0.2667,-0.127 0.5334,-0.127 0.3048,0 0.53975,0.1143 0.2413,0.10795 0.40005,0.3175 0.1651,0.20955 0.24765,0.5016502 0.0889,0.2921 0.0889,0.65405 0,0.40005 -0.1143,0.71755 -0.1143,0.31115 -0.31115,0.52705 -0.1905,0.20955 -0.4445,0.32385 -0.24765,0.1143 -0.51435,0.1143 -0.2159,0 -0.4445,-0.09525 -0.22225,-0.09525 -0.41275,-0.27305 z m 0,-1.0668 q 0.17145,0.15875 0.34925,0.22225 0.18415,0.0635 0.3302,0.0635 0.33655,0 0.5588,-0.2667 0.22225,-0.27305 0.22225,-0.80645 0,-0.4699 -0.17145,-0.7302502 -0.17145,-0.26035 -0.55245,-0.26035 -0.1778,0 -0.36195,0.0889 -0.18415,0.0889 -0.37465,0.2857502 z"
     style="font-size:6.35px;line-height:1.25;font-family:'Source Code Pro Semibold';font-variant-ligatures:normal;font-variant-caps:normal;font-variant-numeric:normal;font-variant-east-asian:normal;letter-spacing:0px;word-spacing:0px;fill:#ffffff;stroke-width:0.26458"
     id="path918" />
  <path
     d="m 25.026811,4.765546 q 0.20955,0.1905 0.50165,0.1905 0.1905,0 0.33655,-0.0762 0.1524,-0.08255 0.254,-0.22225 0.10795,-0.1397 0.1651,-0.3302 0.05715,-0.19685 0.05715,-0.4318 0,-0.32385 -0.1016,-0.56515 z m 0.99695,-1.7526002 q -0.09525,-0.0889 -0.22225,-0.13335 -0.127,-0.0508 -0.27305,-0.0508 -0.1905,0 -0.3429,0.08255 -0.1524,0.0762 -0.26035,0.2159 -0.1016,0.1397002 -0.15875,0.3365502 -0.0508,0.19685 -0.0508,0.4318 0,0.3175 0.09525,0.55245 z m 0.6858,-0.23495 q 0.1778,0.2032 0.2794,0.4889502 0.10795,0.2794 0.10795,0.62865 0,0.38735 -0.13335,0.69215 -0.127,0.3048 -0.3429,0.51435 -0.2159,0.20955 -0.50165,0.3175 -0.28575,0.10795 -0.59055,0.10795 -0.24765,0 -0.4826,-0.06985 -0.2286,-0.06985 -0.42545,-0.20955 l -0.29845,0.3556 -0.2921,-0.2286 0.3175,-0.37465 q -0.18415,-0.2032 -0.28575,-0.4826 -0.1016,-0.2794 -0.1016,-0.6223 0,-0.38735 0.127,-0.69215 0.13335,-0.3048002 0.34925,-0.5143502 0.2159,-0.20955 0.50165,-0.3175 0.28575,-0.1143 0.59055,-0.1143 0.50165,0 0.9017,0.27305 l 0.3048,-0.3556 0.2921,0.2286 z"
     style="font-size:6.35px;line-height:1.25;font-family:'Source Code Pro Semibold';font-variant-ligatures:normal;font-variant-caps:normal;font-variant-numeric:normal;font-variant-east-asian:normal;letter-spacing:0px;word-spacing:0px;fill:#ffffff;stroke-width:0.26458"
     id="path921" />
  <path
     d="m 28.214936,2.3334958 h 2.0828 V 5.451346 h -0.73025 V 2.9113458 h -1.35255 z m 1.6637,-0.5461 q -0.22225,0 -0.37465,-0.13335 -0.14605,-0.13335 -0.14605,-0.3556 0,-0.22225 0.14605,-0.3556 0.1524,-0.1397 0.37465,-0.1397 0.2286,0 0.37465,0.1397 0.14605,0.13335 0.14605,0.3556 0,0.22225 -0.14605,0.3556 -0.14605,0.13335 -0.37465,0.13335 z"
     style="font-size:6.35px;line-height:1.25;font-family:'Source Code Pro Semibold';font-variant-ligatures:normal;font-variant-caps:normal;font-variant-numeric:normal;font-variant-east-asian:normal;letter-spacing:0px;word-spacing:0px;fill:#ffffff;stroke-width:0.26458"
     id="path924" />
  <path
     d="m 31.657059,2.3334958 h 0.60325 l 0.05715,0.4699 h 0.0254 q 0.22225,-0.22225 0.48895,-0.381 0.27305,-0.1651 0.635,-0.1651 0.53975,0 0.79375,0.3302 0.254,0.32385 0.254,0.9334502 v 1.9304 h -0.7366 v -1.83515 q 0,-0.381 -0.13335,-0.5524502 -0.127,-0.1778 -0.45085,-0.1778 -0.2286,0 -0.4064,0.10795 -0.1778,0.10795 -0.3937,0.3302002 v 2.12725 h -0.7366 z"
     style="font-size:6.35px;line-height:1.25;font-family:'Source Code Pro Semibold';font-variant-ligatures:normal;font-variant-caps:normal;font-variant-numeric:normal;font-variant-east-asian:normal;letter-spacing:0px;word-spacing:0px;fill:#ffffff;stroke-width:0.26458"
     id="path927" />
  <path
     d="m 36.143754,2.9113458 h -0.83185 v -0.5461 l 0.8636,-0.03175 0.09525,-0.8509 h 0.60325 v 0.8509 h 1.4224 v 0.57785 h -1.4224 V 4.194046 q 0,0.38735 0.15875,0.5715 0.15875,0.1778 0.5588,0.1778 0.2032,0 0.3683,-0.03175 0.1651,-0.0381 0.3175,-0.09525 l 0.1397,0.5334 q -0.20955,0.06985 -0.46355,0.12065 -0.254,0.05715 -0.53975,0.05715 -0.3556,0 -0.5969,-0.09525 -0.2413,-0.09525 -0.3937,-0.2667 -0.14605,-0.1778 -0.2159,-0.42545 -0.0635,-0.24765 -0.0635,-0.5461 z"
     style="font-size:6.35px;line-height:1.25;font-family:'Source Code Pro Semibold';font-variant-ligatures:normal;font-variant-caps:normal;font-variant-numeric:normal;font-variant-east-asian:normal;letter-spacing:0px;word-spacing:0px;fill:#ffffff;stroke-width:0.26458"
     id="path930" />
  <path
     d="m 39.119155,3.895596 q 0,-0.381 0.13335,-0.6858 0.1397,-0.3048002 0.36195,-0.5143502 0.22225,-0.2159 0.508,-0.32385 0.2921,-0.1143 0.5969,-0.1143 0.34925,0 0.61595,0.1143 0.27305,0.10795 0.4572,0.3048 0.18415,0.1905 0.2794,0.46355 0.09525,0.2730502 0.09525,0.5969002 0,0.10795 -0.0127,0.2032 -0.0063,0.09525 -0.01905,0.1524 h -2.26695 q 0.0381,0.4191 0.3302,0.6477 0.2921,0.22225 0.71755,0.22225 0.2413,0 0.45085,-0.0635 0.20955,-0.06985 0.42545,-0.1905 l 0.24765,0.4572 q -0.254,0.15875 -0.56515,0.26035 -0.31115,0.1016 -0.65405,0.1016 -0.3556,0 -0.66675,-0.10795 -0.31115,-0.1143 -0.53975,-0.32385 -0.2286,-0.20955 -0.36195,-0.508 -0.13335,-0.3048 -0.13335,-0.69215 z m 2.3749,-0.29845 q 0,-0.36195 -0.1905,-0.5651502 -0.1905,-0.20955 -0.56515,-0.20955 -0.3175,0 -0.56515,0.19685 -0.24765,0.1968502 -0.31115,0.5778502 z"
     style="font-size:6.35px;line-height:1.25;font-family:'Source Code Pro Semibold';font-variant-ligatures:normal;font-variant-caps:normal;font-variant-numeric:normal;font-variant-east-asian:normal;letter-spacing:0px;word-spacing:0px;fill:#ffffff;stroke-width:0.26458"
     id="path933" />
  <path
     d="m 43.113726,2.3334958 h 0.60325 l 0.0635,0.70485 h 0.01905 q 0.2413,-0.381 0.57785,-0.57785 0.3429,-0.2032 0.7493,-0.2032 0.1905,0 0.32385,0.03175 0.1397,0.0254 0.2794,0.09525 l -0.1524,0.61595 q -0.1524,-0.0508 -0.27305,-0.06985 -0.1143,-0.0254 -0.2921,-0.0254 -0.32385,0 -0.6223,0.18415 -0.29845,0.1841502 -0.53975,0.6413502 v 1.72085 h -0.7366 z"
     style="font-size:6.35px;line-height:1.25;font-family:'Source Code Pro Semibold';font-variant-ligatures:normal;font-variant-caps:normal;font-variant-numeric:normal;font-variant-east-asian:normal;letter-spacing:0px;word-spacing:0px;fill:#ffffff;stroke-width:0.26458"
     id="path936" />
  <path
     d="m 43.487,5.252 v 2.6746 c 0,0.68171 0,1.0488 -0.1453,1.2322 -0.1453,0.1834 -0.43616,0.1834 -3.312,0.1834 h -11.185 c -2.8484,0 -3.0845,0 -3.2027,-0.20568 -0.1182,-0.20568 -0.1182,-0.61729 -0.1182,-1.0799 v -1.4899"
     fill="none"
     marker-end="url(#marker3936)"
     stroke="#ffffff"
     stroke-width="0.73554"
     id="path61" />
</svg>
